<svg width="46" height="20" viewBox="0 0 46 20" fill="none" xmlns="http://www.w3.org/2000/svg">
<path d="M30.8201 7.5853L26.2007 20L18.3792 1.46982L15.8857 0H23.8385L20.8464 1.44357L26.8306 15.853H27.1718L30.4527 6.77165L28.2479 1.44357L25.597 0H33.786L30.7414 1.46982L36.6469 15.853H37.0144L42.2899 1.41732L39.2978 0H45.4658L42.9724 1.39108L36.017 20L30.8201 7.5853Z" fill="black"/>
<path d="M9.02887 19.2913H0L2.28346 17.9003V1.39108L0 0H9.34383C13.0184 0 15.9055 1.99475 15.9055 4.54068C15.9055 6.74541 13.9633 8.45144 11.0499 8.95013V9.23884C14.3045 9.84252 16.5354 11.706 16.5617 14.1207C16.5879 17.2178 13.3333 19.2913 9.02887 19.2913ZM4.48819 0.524934V8.89764H9.1601C11.7848 8.89764 13.5958 7.11286 13.5958 4.54068C13.5958 2.17848 11.8635 0.524934 9.18635 0.524934H4.48819ZM4.48819 9.39633V18.7664H8.89764C12.3885 18.7664 14.2257 16.5617 14.2257 14.0945C14.2257 11.6273 12.3885 9.39633 8.92388 9.39633H4.48819Z" fill="black"/>
</svg>
