<svg width="637" height="151" viewBox="0 0 637 151" fill="none" xmlns="http://www.w3.org/2000/svg">
<path fill-rule="evenodd" clip-rule="evenodd" d="M312.839 54.7C310.972 54.7 309.506 54.4667 308.439 54C307.372 53.5333 306.072 52.7667 304.539 51.7C302.672 50.4333 301.306 49 300.439 47.4C299.572 45.8 299.139 43.8667 299.139 41.6C299.139 40.4 299.239 39.2667 299.439 38.2C299.972 35 301.239 31.9 303.239 28.9C305.239 25.8333 307.672 23 310.539 20.4C313.406 17.7333 316.372 15.3667 319.439 13.3C322.572 11.1667 325.539 9.46667 328.339 8.2C329.672 7.53334 330.939 6.96667 332.139 6.5C333.339 5.96667 334.672 5.60001 336.139 5.40001C336.406 5.33334 336.672 5.30001 336.939 5.30001C337.206 5.30001 337.472 5.26667 337.739 5.2C338.072 5.06667 338.372 4.96667 338.639 4.90001C338.972 4.83334 339.339 4.80001 339.739 4.80001C340.806 4.80001 341.772 5.13334 342.639 5.8C343.506 6.4 343.939 7.26667 343.939 8.40001C343.939 8.46667 343.872 8.76667 343.739 9.3C343.672 9.83334 343.572 10.1 343.439 10.1L343.739 10.2C344.206 9.53334 344.939 8.63334 345.939 7.5C347.006 6.36667 348.006 5.23334 348.939 4.10001C349.872 2.96667 350.339 2.06667 350.339 1.4C350.339 1.13334 350.272 0.900006 350.139 0.700005C350.072 0.433337 349.972 0.200001 349.839 0C350.506 0.266667 351.206 0.733335 351.939 1.4C352.672 2.06667 353.039 2.76667 353.039 3.5C353.039 3.7 353.006 3.83334 352.939 3.90001C352.872 4.16667 352.539 4.60001 351.939 5.2C351.339 5.8 350.672 6.4 349.939 7C349.272 7.6 348.806 8.03334 348.539 8.30001C347.606 9.10001 346.539 10.3 345.339 11.9C344.139 13.5 343.106 15.1667 342.239 16.9C341.372 18.6333 340.939 20.1667 340.939 21.5C340.939 22.1667 341.039 22.7 341.239 23.1C341.439 23.5 341.739 23.9667 342.139 24.5H341.939V24.6C341.072 24.2667 340.239 23.7667 339.439 23.1C338.639 22.3667 338.239 21.5 338.239 20.5C338.239 19.7 338.339 19 338.539 18.4C338.606 18.1333 338.806 17.6333 339.139 16.9C339.539 16.1 339.939 15.3333 340.339 14.6C340.739 13.8667 341.006 13.4667 341.139 13.4V13.1H341.039L340.439 13.7C340.239 13.8333 340.006 13.9 339.739 13.9V13.5C340.806 12.4333 341.339 11.0667 341.339 9.40001C341.339 7.46667 340.372 6.5 338.439 6.5C337.972 6.5 337.606 6.53334 337.339 6.60001C333.606 7.26667 330.206 8.63334 327.139 10.7C324.072 12.7667 321.072 14.9667 318.139 17.3C317.272 17.9667 316.406 18.6667 315.539 19.4C314.672 20.0667 313.872 20.8667 313.139 21.8L311.139 24.4C310.472 25.2667 309.806 26.1667 309.139 27.1C308.472 27.9667 307.672 29.0333 306.739 30.3C305.872 31.5 305.439 32.6667 305.439 33.8C304.839 34.3333 304.306 35.2333 303.839 36.5C303.372 37.7667 303.006 39.1 302.739 40.5C302.472 41.8333 302.339 42.9 302.339 43.7C302.339 45.3667 302.639 47.0667 303.239 48.8C303.906 50.4667 305.072 51.6333 306.739 52.3C307.406 52.5667 308.106 52.7333 308.839 52.8H310.939C311.139 52.8 311.606 52.7333 312.339 52.6C313.139 52.4667 313.572 52.3667 313.639 52.3C315.306 52.1667 316.906 51.7333 318.439 51C320.039 50.2667 321.572 49.5667 323.039 48.9C323.172 48.8333 323.339 48.7667 323.539 48.7C323.806 48.5667 324.006 48.5333 324.139 48.6L324.239 48.4C326.572 47.8 328.806 46.6667 330.939 45C333.139 43.3333 335.272 41.9333 337.339 40.8L340.039 39.3C340.439 39.1 341.006 38.6667 341.739 38C342.539 37.3333 343.372 36.6333 344.239 35.9C345.106 35.1 345.872 34.4 346.539 33.8C347.249 33.2188 347.709 32.9191 347.919 32.9009C348.482 31.7853 349.016 30.8183 349.519 29.9999C350.053 29.0666 350.386 28.5666 350.519 28.4999V28.3999H350.419C350.753 27.8666 351.019 27.3332 351.219 26.7999C351.486 26.2666 351.853 25.7999 352.319 25.3999C352.319 25.2666 352.553 24.8666 353.019 24.1999C353.553 23.4666 353.886 22.9999 354.019 22.7999C355.753 20.4666 357.753 17.9332 360.019 15.1999C362.353 12.3999 364.786 10.2666 367.319 8.7999C367.653 8.66657 367.953 8.53324 368.219 8.3999C368.486 8.1999 368.753 8.06657 369.019 7.9999H369.219C369.286 7.93324 369.353 7.8999 369.419 7.8999C370.219 7.8999 371.153 8.23323 372.219 8.8999C373.353 9.56657 373.919 10.3666 373.919 11.2999C373.919 11.9666 373.453 13.0332 372.519 14.4999C371.653 15.8999 370.553 17.4999 369.219 19.2999C367.886 21.0332 366.453 22.7999 364.919 24.5999C363.453 26.3332 362.119 27.8666 360.919 29.1999C359.719 30.5332 358.853 31.4666 358.319 31.9999C358.119 32.1999 357.886 32.3999 357.619 32.5999C357.353 32.7999 357.086 33.0332 356.819 33.2999C356.286 33.8332 355.753 34.3999 355.219 34.9999C354.753 35.5999 354.219 36.1666 353.619 36.6999L351.019 39.0999C350.219 39.8999 349.386 40.6666 348.519 41.3999C348.186 41.6666 347.819 41.9666 347.419 42.2999L346.419 43.2999C346.086 43.6999 345.853 44.4332 345.719 45.4999C345.586 46.5666 345.519 47.3666 345.519 47.8999C345.519 48.4999 345.586 49.2999 345.719 50.2999C345.919 51.2332 346.253 52.0666 346.719 52.7999C347.186 53.5332 347.819 53.8999 348.619 53.8999C349.019 53.8999 349.353 53.8332 349.619 53.6999C349.953 53.5666 350.286 53.3999 350.619 53.1999C352.553 52.1332 354.353 50.9332 356.019 49.5999C357.686 48.1999 359.253 46.7332 360.719 45.1999C361.253 44.6666 361.753 44.1332 362.219 43.5999C362.753 42.9999 363.286 42.4332 363.819 41.8999L364.619 41.0999C364.936 40.783 365.211 40.6126 365.444 40.5886C365.67 40.331 365.938 40.0349 366.248 39.7001C367.115 38.7001 368.015 37.7668 368.948 36.9001C369.882 36.0334 370.482 35.6001 370.748 35.6001C371.148 35.0001 371.882 34.3334 372.948 33.6001C374.082 32.8668 375.215 32.1668 376.348 31.5001C377.548 30.8334 378.382 30.3668 378.848 30.1001V30.0001L378.948 30.1001H379.048C379.315 29.8334 379.815 29.5668 380.548 29.3001C381.348 28.9668 381.882 28.7668 382.148 28.7001C382.615 28.5001 383.082 28.3668 383.548 28.3001L384.948 28.1001C385.282 28.1668 385.615 28.2001 385.948 28.2001C386.348 28.2001 386.715 28.2334 387.048 28.3001C387.715 28.4334 388.448 28.8001 389.248 29.4001C390.048 29.9334 390.448 30.6001 390.448 31.4001C390.382 31.4668 390.315 31.5668 390.248 31.7001C390.182 31.8334 390.182 31.9334 390.248 32.0001L389.848 31.8001C389.448 31.0668 388.848 30.6334 388.048 30.5001C387.248 30.3001 386.482 30.2001 385.748 30.2001C383.948 30.2001 382.048 30.6668 380.048 31.6001C378.048 32.4668 376.082 33.6334 374.148 35.1001C372.215 36.5668 370.482 38.1334 368.948 39.8001C367.482 41.4668 366.382 43.0668 365.648 44.6001L365.348 45.8001C365.215 46.4668 365.015 47.1001 364.748 47.7001C364.482 48.3001 364.348 48.9668 364.348 49.7001C364.348 50.2334 364.415 50.6334 364.548 50.9001C364.682 51.1001 364.915 51.4334 365.248 51.9001L365.448 51.8001V51.9001L365.648 51.7001L366.048 51.8001C366.515 51.5334 367.015 51.3334 367.548 51.2001C368.082 51.0001 368.515 50.7334 368.848 50.4001L369.048 50.2001C369.448 50.0668 369.815 49.8334 370.148 49.5001L371.048 48.6001L374.048 45.8001C375.048 44.8668 375.982 43.9001 376.848 42.9001C377.315 42.3668 377.915 41.7001 378.648 40.9001C379.382 40.1001 380.015 39.5334 380.548 39.2001L380.648 38.8001C381.182 38.6001 381.682 38.1334 382.148 37.4001C382.682 36.6668 383.182 35.9668 383.648 35.3001C384.182 34.5668 384.682 34.2001 385.148 34.2001L385.548 34.1001C386.082 34.1001 386.515 34.3334 386.848 34.8001C387.182 35.2001 387.348 35.6334 387.348 36.1001C387.348 36.6334 387.182 37.2334 386.848 37.9001C386.515 38.5668 386.282 39.1668 386.148 39.7001C385.815 41.1001 385.582 42.3668 385.448 43.5001C385.315 44.5668 385.248 45.8001 385.248 47.2001C385.248 48.0668 385.382 48.8001 385.648 49.4001C385.982 50.0001 386.448 50.6334 387.048 51.3001H387.548C388.482 50.7668 389.148 50.2001 389.548 49.6001C389.948 49.0001 390.448 48.3668 391.048 47.7001C391.115 47.7001 391.182 47.6668 391.248 47.6001L391.348 47.5001C391.482 47.5001 391.548 47.5668 391.548 47.7001C391.548 47.9668 391.482 48.2334 391.348 48.5001C391.282 48.7001 391.215 48.9668 391.148 49.3001C391.015 50.0334 390.815 50.7334 390.548 51.4001C390.348 52.0001 389.715 52.3001 388.648 52.3001C388.048 52.3001 387.382 52.1668 386.648 51.9001C385.915 51.6334 385.315 51.2668 384.848 50.8001C383.848 49.6668 383.215 48.4334 382.948 47.1001C382.748 45.7001 382.648 44.2668 382.648 42.8001V39.6001H382.448C382.182 40.0001 381.882 40.4001 381.548 40.8001L380.548 42.0001C380.282 42.2668 379.948 42.5668 379.548 42.9001C379.215 43.1668 378.915 43.5001 378.648 43.9001C378.515 43.9001 378.248 44.1334 377.848 44.6001C377.515 45.0001 377.348 45.3001 377.348 45.5001C376.882 45.5668 376.348 45.9668 375.748 46.7001C375.215 47.4334 374.848 47.8001 374.648 47.8001C374.582 48.0001 374.348 48.3334 373.948 48.8001L373.048 49.7001C372.582 49.7668 372.182 50.0001 371.848 50.4001C371.582 50.8001 371.315 51.1668 371.048 51.5001C370.448 51.7668 369.782 52.1334 369.048 52.6001C368.315 53.0001 367.615 53.2001 366.948 53.2001C366.015 53.2001 364.982 52.7001 363.848 51.7001C362.715 50.6334 362.148 49.6001 362.148 48.6001H362.048C362.115 48.3334 362.182 47.7001 362.248 46.7001C362.315 45.7001 362.482 45.1668 362.748 45.1001V44.9001C362.815 44.8334 362.982 44.5668 363.248 44.1001C363.472 43.709 363.695 43.2946 363.919 42.8567C363.905 42.876 363.891 42.8955 363.877 42.915L363.861 42.9384L363.833 42.9794L363.819 42.9999C363.419 43.5999 363.053 44.1999 362.719 44.7999C362.386 45.3332 362.053 45.9332 361.719 46.5999C361.586 46.8666 361.386 47.1332 361.119 47.3999C360.853 47.6666 360.619 47.9332 360.419 48.1999C359.419 49.3999 358.319 50.4999 357.119 51.4999C355.986 52.4999 354.653 53.3332 353.119 53.9999C352.519 54.2666 351.953 54.4666 351.419 54.5999C350.886 54.7999 350.286 54.8999 349.619 54.8999C347.886 54.8999 346.586 54.4999 345.719 53.6999C344.853 52.8999 344.286 51.8666 344.019 50.5999C343.753 49.3332 343.619 48.0332 343.619 46.6999C343.619 45.6332 343.353 45.0666 342.819 44.9999C342.286 44.8666 342.053 44.6332 342.119 44.2999L344.219 42.6999L344.519 41.5999C344.786 40.8666 345.053 40.0999 345.319 39.2999C345.586 38.4999 345.753 38.0332 345.819 37.8999C345.753 37.6999 345.919 37.1332 346.319 36.1999C346.559 35.7199 346.808 35.2135 347.066 34.6807C346.964 34.7891 346.855 34.8956 346.739 35C346.072 35.5333 345.472 36.0667 344.939 36.6C339.872 41.5333 334.272 45.8 328.139 49.4C327.672 49.6667 327.172 49.9 326.639 50.1C326.172 50.3 325.672 50.5333 325.139 50.8L325.039 50.9H324.939H324.839L324.939 50.8C323.206 51.9333 321.272 52.8667 319.139 53.6C317.072 54.3333 314.972 54.7 312.839 54.7ZM359.119 28.4999C355.386 32.4332 351.553 36.2332 347.619 39.8999L347.219 39.7999C347.286 39.3332 347.553 38.5999 348.019 37.5999C348.553 36.5332 349.119 35.4999 349.719 34.4999C350.319 33.4332 350.753 32.6999 351.019 32.2999C352.353 30.1666 353.519 28.3332 354.519 26.7999C355.586 25.2666 356.886 23.5332 358.419 21.5999L360.419 18.9999C361.086 18.1332 361.786 17.2999 362.519 16.4999L364.119 14.8999C364.653 14.3666 365.153 13.8332 365.619 13.2999C365.753 13.1666 365.953 13.0332 366.219 12.8999C366.553 12.6999 366.786 12.5332 366.919 12.3999C367.586 11.8666 368.219 11.3666 368.819 10.8999C369.419 10.4332 370.119 10.0666 370.919 9.7999C371.119 9.86657 371.219 10.0999 371.219 10.4999C371.219 11.0332 370.919 11.8999 370.319 13.0999C369.786 14.2332 369.353 15.0666 369.019 15.5999C366.153 20.1999 362.853 24.4999 359.119 28.4999ZM391.001 57.7999C391.267 58.3332 391.534 58.6666 391.801 58.7999L391.901 58.5999C391.901 58.2666 391.834 57.9332 391.701 57.5999C391.567 57.3332 391.501 57.0666 391.501 56.7999C391.501 55.9999 391.767 55.3332 392.301 54.7999C393.034 53.9999 393.767 53.2666 394.501 52.5999C395.234 51.8666 396.034 51.1666 396.901 50.4999C397.567 49.9666 398.167 49.4332 398.701 48.8999C399.234 48.2999 399.834 47.7666 400.501 47.2999C401.034 46.8999 401.567 46.5332 402.101 46.1999C402.634 45.8666 403.134 45.5332 403.601 45.1999C403.734 45.0666 403.901 44.8666 404.101 44.5999C404.367 44.3332 404.634 44.1999 404.901 44.1999C405.167 44.1999 405.334 44.3999 405.401 44.7999C405.467 45.1332 405.501 45.3999 405.501 45.5999C405.501 46.6666 405.101 47.7999 404.301 48.9999C403.501 50.1332 402.567 51.1999 401.501 52.1999C400.434 53.1332 399.467 53.8999 398.601 54.4999C398.534 54.5666 398.334 54.6999 398.001 54.8999C397.734 55.0999 397.601 55.2332 397.601 55.2999C397.134 55.5666 396.334 55.9666 395.201 56.4999C394.067 57.0332 393.367 57.3666 393.101 57.4999C392.901 57.6999 392.801 57.8332 392.801 57.8999C392.801 58.0332 392.901 58.0999 393.101 58.0999C393.367 58.0999 393.601 58.0332 393.801 57.8999C394.001 57.7666 394.234 57.6666 394.501 57.5999C395.567 57.7999 396.434 57.6999 397.101 57.2999C397.834 56.9666 398.434 56.5666 398.901 56.0999C399.434 55.6999 399.934 55.4999 400.401 55.4999H400.501C400.834 55.1666 401.167 54.7999 401.501 54.3999C401.834 54.0666 402.234 53.8999 402.701 53.8999L403.201 53.2999C404.001 53.3666 404.534 53.0999 404.801 52.4999C405.134 51.8332 405.601 51.3999 406.201 51.1999V50.7999C406.667 50.4666 407.067 49.8332 407.401 48.8999C407.734 47.8999 407.901 47.1332 407.901 46.5999C407.901 46.2666 407.834 45.9666 407.701 45.6999C407.634 45.4332 407.601 45.1666 407.601 44.8999C407.601 44.0999 408.067 43.3999 409.001 42.7999C409.934 42.1332 410.701 41.5999 411.301 41.1999C411.501 41.0666 411.667 40.8999 411.801 40.6999C411.934 40.4332 412.101 40.2332 412.301 40.0999C412.634 39.8332 413.234 39.5666 414.101 39.2999C415.034 38.9666 415.701 38.5999 416.101 38.1999L416.501 37.9999L416.801 37.6999C416.667 37.5666 416.567 37.4999 416.501 37.4999L415.101 37.7999C414.101 37.9999 412.767 38.5332 411.101 39.3999C409.434 40.1999 408.134 40.8666 407.201 41.3999C406.934 41.5332 406.634 41.7332 406.301 41.9999C405.967 42.2666 405.634 42.3999 405.301 42.3999C405.234 42.3999 404.801 42.1999 404.001 41.7999C403.267 41.3332 402.501 40.8666 401.701 40.3999C400.901 39.9332 400.401 39.6332 400.201 39.4999C399.667 39.2332 399.134 38.8999 398.601 38.4999C398.134 38.0332 397.901 37.4666 397.901 36.7999C397.901 36.2666 398.034 35.7666 398.301 35.2999C398.634 34.7666 398.934 34.2666 399.201 33.7999C400.734 31.5332 402.401 29.8332 404.201 28.6999C406.067 27.4999 408.234 26.4666 410.701 25.5999C411.434 25.2666 412.134 24.9999 412.801 24.7999C413.534 24.5332 414.301 24.3999 415.101 24.3999C416.167 24.3999 416.701 24.8999 416.701 25.8999C416.701 26.4332 416.534 27.1332 416.201 27.9999C415.934 28.7999 415.634 29.3999 415.301 29.7999V29.9999H415.401C415.467 29.9332 415.534 29.8999 415.601 29.8999C415.867 29.7666 416.201 29.3999 416.601 28.7999C417.067 28.1999 417.467 27.5666 417.801 26.8999C418.201 26.1666 418.401 25.6666 418.401 25.3999C418.401 24.7332 418.001 24.0666 417.201 23.3999C416.401 22.7332 415.701 22.3999 415.101 22.3999C414.567 22.3999 414.001 22.4999 413.401 22.6999C412.801 22.8332 412.234 22.9666 411.701 23.0999H411.501L410.301 23.5999C409.701 23.7332 409.167 23.9666 408.701 24.2999V24.1999C408.234 24.3999 407.467 24.7666 406.401 25.2999C405.401 25.7666 404.401 26.2666 403.401 26.7999C402.467 27.3332 401.834 27.7999 401.501 28.1999C400.367 28.8666 399.101 29.8332 397.701 31.0999C396.301 32.2999 395.601 33.6332 395.601 35.0999C395.601 36.0332 395.867 36.8999 396.401 37.6999C397.001 38.4999 397.634 39.1666 398.301 39.6999C399.034 40.4332 399.901 40.9999 400.901 41.3999C401.901 41.7999 402.834 42.2666 403.701 42.7999V42.8999C403.367 43.3666 402.867 43.7666 402.201 44.0999C401.601 44.4332 401.067 44.8332 400.601 45.2999H400.301C398.234 46.3666 396.167 47.6666 394.101 49.1999C392.101 50.7332 390.401 52.4666 389.001 54.3999C389.001 54.5999 389.067 54.7999 389.201 54.9999C389.267 55.1999 389.301 55.4332 389.301 55.6999C389.567 55.6332 389.834 55.8332 390.101 56.2999C390.367 56.8332 390.667 57.3332 391.001 57.7999ZM413.383 58.7999C413.116 58.6666 412.849 58.3332 412.583 57.7999C412.249 57.3332 411.949 56.8332 411.683 56.2999C411.416 55.8332 411.149 55.6332 410.883 55.6999C410.883 55.4332 410.849 55.1999 410.783 54.9999C410.649 54.7999 410.583 54.5999 410.583 54.3999C411.983 52.4666 413.683 50.7332 415.683 49.1999C417.749 47.6666 419.816 46.3666 421.883 45.2999H422.183C422.649 44.8332 423.183 44.4332 423.783 44.0999C424.449 43.7666 424.949 43.3666 425.283 42.8999V42.7999C424.416 42.2666 423.483 41.7999 422.483 41.3999C421.483 40.9999 420.616 40.4332 419.883 39.6999C419.216 39.1666 418.583 38.4999 417.983 37.6999C417.449 36.8999 417.183 36.0332 417.183 35.0999C417.183 33.6332 417.883 32.2999 419.283 31.0999C420.683 29.8332 421.949 28.8666 423.083 28.1999C423.416 27.7999 424.049 27.3332 424.983 26.7999C425.983 26.2666 426.983 25.7666 427.983 25.2999C429.049 24.7666 429.816 24.3999 430.283 24.1999V24.2999C430.749 23.9666 431.283 23.7332 431.883 23.5999L433.083 23.0999H433.283C433.816 22.9666 434.383 22.8332 434.983 22.6999C435.583 22.4999 436.149 22.3999 436.683 22.3999C437.283 22.3999 437.983 22.7332 438.783 23.3999C439.583 24.0666 439.983 24.7332 439.983 25.3999C439.983 25.6666 439.783 26.1666 439.383 26.8999C439.049 27.5666 438.649 28.1999 438.183 28.7999C437.783 29.3999 437.449 29.7666 437.183 29.8999C437.116 29.8999 437.049 29.9332 436.983 29.9999H436.883V29.7999C437.216 29.3999 437.516 28.7999 437.783 27.9999C438.116 27.1332 438.283 26.4332 438.283 25.8999C438.283 24.8999 437.749 24.3999 436.683 24.3999C435.883 24.3999 435.116 24.5332 434.383 24.7999C433.716 24.9999 433.016 25.2666 432.283 25.5999C429.816 26.4666 427.649 27.4999 425.783 28.6999C423.983 29.8332 422.316 31.5332 420.783 33.7999C420.516 34.2666 420.216 34.7666 419.883 35.2999C419.616 35.7666 419.483 36.2666 419.483 36.7999C419.483 37.4666 419.716 38.0332 420.183 38.4999C420.716 38.8999 421.249 39.2332 421.783 39.4999C421.983 39.6332 422.483 39.9332 423.283 40.3999C424.083 40.8666 424.849 41.3332 425.583 41.7999C426.383 42.1999 426.816 42.3999 426.883 42.3999C427.216 42.3999 427.549 42.2666 427.883 41.9999C428.216 41.7332 428.516 41.5332 428.783 41.3999C429.716 40.8666 431.016 40.1999 432.683 39.3999C434.349 38.5332 435.683 37.9999 436.683 37.7999L438.083 37.4999C438.149 37.4999 438.249 37.5666 438.383 37.6999L438.083 37.9999L437.683 38.1999C437.283 38.5999 436.616 38.9666 435.683 39.2999C434.816 39.5666 434.216 39.8332 433.883 40.0999C433.683 40.2332 433.516 40.4332 433.383 40.6999C433.249 40.8999 433.083 41.0666 432.883 41.1999C432.283 41.5999 431.516 42.1332 430.583 42.7999C429.649 43.3999 429.183 44.0999 429.183 44.8999C429.183 45.1666 429.216 45.4332 429.283 45.6999C429.416 45.9666 429.483 46.2666 429.483 46.5999C429.483 47.1332 429.316 47.8999 428.983 48.8999C428.649 49.8332 428.249 50.4666 427.783 50.7999V51.1999C427.183 51.3999 426.716 51.8332 426.383 52.4999C426.116 53.0999 425.583 53.3666 424.783 53.2999L424.283 53.8999C423.816 53.8999 423.416 54.0666 423.083 54.3999C422.749 54.7999 422.416 55.1666 422.083 55.4999H421.983C421.516 55.4999 421.016 55.6999 420.483 56.0999C420.016 56.5666 419.416 56.9666 418.683 57.2999C418.016 57.6999 417.149 57.7999 416.083 57.5999C415.816 57.6666 415.583 57.7666 415.383 57.8999C415.183 58.0332 414.949 58.0999 414.683 58.0999C414.483 58.0999 414.383 58.0332 414.383 57.8999C414.383 57.8332 414.483 57.6999 414.683 57.4999C414.949 57.3666 415.649 57.0332 416.783 56.4999C417.916 55.9666 418.716 55.5666 419.183 55.2999C419.183 55.2332 419.316 55.0999 419.583 54.8999C419.916 54.6999 420.116 54.5666 420.183 54.4999C421.049 53.8999 422.016 53.1332 423.083 52.1999C424.149 51.1999 425.083 50.1332 425.883 48.9999C426.683 47.7999 427.083 46.6666 427.083 45.5999C427.083 45.3999 427.049 45.1332 426.983 44.7999C426.916 44.3999 426.749 44.1999 426.483 44.1999C426.216 44.1999 425.949 44.3332 425.683 44.5999C425.483 44.8666 425.316 45.0666 425.183 45.1999C424.716 45.5332 424.216 45.8666 423.683 46.1999C423.149 46.5332 422.616 46.8999 422.083 47.2999C421.416 47.7666 420.816 48.2999 420.283 48.8999C419.749 49.4332 419.149 49.9666 418.483 50.4999C417.616 51.1666 416.816 51.8666 416.083 52.5999C415.349 53.2666 414.616 53.9999 413.883 54.7999C413.349 55.3332 413.083 55.9999 413.083 56.7999C413.083 57.0666 413.149 57.3332 413.283 57.5999C413.416 57.9332 413.483 58.2666 413.483 58.5999L413.383 58.7999ZM427.365 83.5999C426.031 83.5999 425.098 83.1666 424.565 82.2999C424.031 81.4332 423.765 80.4332 423.765 79.2999C423.765 77.9666 424.065 76.5999 424.665 75.1999C425.198 73.7999 425.798 72.5332 426.465 71.3999C427.065 70.4666 427.665 69.4999 428.265 68.4999C428.865 67.5666 429.498 66.6666 430.165 65.7999C431.831 63.5999 433.898 61.2999 436.365 58.8999C438.831 56.5666 441.198 54.6332 443.465 53.0999C445.065 51.9666 446.731 50.9999 448.465 50.1999C450.265 49.3332 452.031 48.4666 453.765 47.5999V47.6999L453.865 47.5999C454.465 47.3332 455.165 47.0332 455.965 46.6999C456.831 46.2999 457.565 46.0999 458.165 46.0999C458.498 45.9666 458.698 45.8332 458.765 45.6999C459.098 45.2999 459.365 44.6999 459.565 43.8999C459.831 43.0332 460.065 42.1332 460.265 41.1999C460.531 40.2666 460.765 39.5666 460.965 39.0999C461.231 38.7666 461.398 38.3999 461.465 37.9999C461.531 37.8666 461.531 37.6999 461.465 37.4999C461.465 37.2332 461.498 36.9999 461.565 36.7999C461.698 36.0666 461.831 35.3999 461.965 34.7999C462.098 34.1999 462.198 33.4666 462.265 32.5999C461.731 32.7332 461.098 33.2666 460.365 34.1999C459.698 35.0666 459.098 35.7332 458.565 36.1999C457.898 36.8666 457.198 37.4999 456.465 38.0999C455.798 38.6999 455.098 39.3666 454.365 40.0999C453.698 40.6999 452.831 41.5666 451.765 42.6999C450.698 43.8332 449.531 44.9999 448.265 46.1999C446.998 47.3332 445.765 48.2999 444.565 49.0999C443.365 49.8999 442.331 50.2999 441.465 50.2999C440.731 50.2999 439.898 49.9999 438.965 49.3999C438.098 48.7999 437.498 48.1666 437.165 47.4999L437.265 47.3999C437.198 47.1999 437.165 46.8666 437.165 46.3999C437.165 45.2666 437.431 43.9999 437.965 42.5999C438.565 41.1999 439.265 39.8332 440.065 38.4999C440.865 37.1666 441.598 36.0666 442.265 35.1999L442.965 34.4999C443.231 34.2999 443.465 34.0666 443.665 33.7999C444.198 33.1332 444.765 32.4666 445.365 31.7999C446.031 31.0666 446.831 30.6999 447.765 30.6999C448.098 30.6999 448.731 30.9332 449.665 31.3999C450.598 31.8666 451.065 32.2666 451.065 32.5999C451.065 32.7332 450.998 32.7999 450.865 32.7999C450.731 32.7999 450.565 32.7666 450.365 32.6999C450.231 32.6332 450.098 32.5999 449.965 32.5999C449.298 32.5999 448.365 33.2332 447.165 34.4999C445.965 35.7666 444.731 37.2999 443.465 39.0999C442.198 40.8999 441.131 42.6332 440.265 44.2999C439.465 45.8999 439.065 47.0666 439.065 47.7999C439.065 48.1999 439.265 48.3999 439.665 48.3999C440.331 48.3999 441.031 48.1666 441.765 47.6999C442.565 47.2332 443.198 46.7999 443.665 46.3999H443.865C446.798 44.2666 449.598 42.0332 452.265 39.6999C454.998 37.2999 457.698 34.8666 460.365 32.3999C460.831 31.9999 461.231 31.5666 461.565 31.0999C461.965 30.6332 462.398 30.2332 462.865 29.8999C463.398 29.9666 464.031 30.1332 464.765 30.3999C465.498 30.6666 465.865 31.1666 465.865 31.8999C465.865 32.2332 465.798 32.5666 465.665 32.8999C465.598 33.1666 465.531 33.4666 465.465 33.7999C465.331 34.4666 465.165 35.1332 464.965 35.7999C464.831 36.4666 464.665 37.1332 464.465 37.7999C464.398 38.1999 464.265 38.5999 464.065 38.9999C463.865 39.3332 463.698 39.6999 463.565 40.0999C463.498 40.4999 463.431 40.9332 463.365 41.3999C463.298 41.7999 463.198 42.1999 463.065 42.5999C462.998 42.8666 462.765 43.3332 462.365 43.9999C462.031 44.6666 461.865 45.1332 461.865 45.3999C461.865 45.6666 462.031 45.7999 462.365 45.7999C462.765 45.7332 463.031 45.6999 463.165 45.6999C464.498 45.6999 465.498 45.9999 466.165 46.5999C466.831 47.1999 467.198 47.4999 467.265 47.4999C467.131 47.5666 466.965 47.5999 466.765 47.5999C466.565 47.5999 466.398 47.6332 466.265 47.6999C466.198 47.4332 466.031 47.2666 465.765 47.1999C465.498 47.1332 465.231 47.0999 464.965 47.0999C464.565 47.0999 463.965 47.2332 463.165 47.4999C462.431 47.6999 461.731 48.0332 461.065 48.4999C460.465 48.8999 460.165 49.3666 460.165 49.8999C459.898 50.0332 459.431 50.5999 458.765 51.5999C458.098 52.5999 457.698 53.2666 457.565 53.5999C457.498 53.7332 457.465 53.8999 457.465 54.0999C457.465 54.2999 457.431 54.4666 457.365 54.5999C457.298 54.8666 457.065 55.1332 456.665 55.3999C456.265 55.6666 456.065 56.1999 456.065 56.9999C455.731 57.1332 455.298 57.4999 454.765 58.0999C454.298 58.7666 454.065 59.2666 454.065 59.5999L453.765 59.7999V59.8999L453.865 60.0999C453.731 60.1666 453.565 60.2666 453.365 60.3999C453.231 60.5332 453.165 60.6999 453.165 60.8999C452.898 61.0332 452.565 61.4332 452.165 62.0999C451.831 62.7666 451.498 63.1332 451.165 63.1999V63.4999L450.465 63.9999V64.2999C450.198 64.4999 449.731 64.9666 449.065 65.6999C448.465 66.4332 448.098 66.8332 447.965 66.8999V67.2999C447.765 67.4999 447.665 67.6332 447.665 67.6999C447.398 67.7666 447.131 67.9332 446.865 68.1999C446.665 68.5332 446.465 68.6999 446.265 68.6999L446.365 68.9999L445.965 69.3999C445.765 69.5999 445.631 69.7666 445.565 69.8999H445.365C445.231 70.2332 444.898 70.6332 444.365 71.0999L443.165 72.2999L443.005 72.5H447.249L439.649 76.74L418.449 133.46L402.609 95.62L388.529 133.46L364.689 76.98L357.089 72.5H381.329L372.209 76.9L390.449 120.82H391.489L401.489 93.14L394.769 76.9L386.689 72.5H411.649L402.369 76.98L420.369 120.82H421.489L437.064 78.2003C436.731 78.5335 436.365 78.8 435.965 78.9999L434.965 79.7999C433.898 80.5332 432.698 81.3332 431.365 82.1999C430.031 83.1332 428.698 83.5999 427.365 83.5999ZM436.623 76.3719C436.504 76.4812 436.385 76.5906 436.265 76.6999C435.598 77.4332 434.865 78.0666 434.065 78.5999C434.065 78.7332 433.631 79.0666 432.765 79.5999C431.898 80.1999 430.998 80.7666 430.065 81.2999C429.131 81.8999 428.531 82.2666 428.265 82.3999V82.2999L428.165 82.3999L427.365 82.5999C427.098 82.7332 426.798 82.7999 426.465 82.7999C425.998 82.7999 425.731 82.4999 425.665 81.8999C425.598 81.3666 425.565 80.9666 425.565 80.6999C425.565 80.3666 425.598 79.7999 425.665 78.9999C425.731 78.2666 425.898 77.7666 426.165 77.4999V77.1999C426.365 76.7999 426.765 76.0666 427.365 74.9999C427.768 74.243 428.21 73.4478 428.69 72.6145L436.623 76.3719ZM440.674 72.5C441.364 71.8634 441.995 71.1967 442.565 70.4999C442.965 69.9666 443.331 69.4332 443.665 68.8999C444.065 68.3666 444.465 67.8666 444.865 67.3999C445.398 66.6666 445.965 65.9332 446.565 65.1999C447.231 64.5332 447.831 63.8666 448.365 63.1999C448.965 62.3999 449.531 61.5666 450.065 60.6999L451.665 58.2999L454.065 54.7999C454.198 54.5332 454.298 54.2666 454.365 53.9999C454.498 53.7999 454.631 53.5666 454.765 53.2999C454.965 52.8999 455.298 52.3666 455.765 51.6999C456.231 50.9666 456.665 50.2332 457.065 49.4999C457.465 48.7666 457.665 48.2332 457.665 47.8999C457.665 47.7666 457.631 47.6999 457.565 47.6999C457.365 47.8332 456.765 48.0999 455.765 48.4999C454.831 48.8332 453.898 49.1999 452.965 49.5999C452.098 49.9332 451.631 50.1666 451.565 50.2999C451.298 50.3666 450.598 50.7999 449.465 51.5999C448.331 52.3332 447.165 53.0999 445.965 53.8999C444.831 54.6999 444.065 55.2666 443.665 55.5999C442.531 56.5332 441.365 57.5332 440.165 58.5999L436.765 61.7999C436.365 62.1332 436.031 62.4999 435.765 62.8999C435.498 63.3666 435.198 63.7999 434.865 64.1999C434.665 64.3999 434.198 64.8999 433.465 65.6999C432.731 66.4999 432.331 67.0332 432.265 67.2999C431.998 67.4332 431.565 67.9332 430.965 68.7999C430.365 69.6666 429.765 70.6666 429.165 71.7999C429.026 72.0362 428.89 72.2695 428.757 72.5H440.674ZM270.225 60.1001C270.958 60.5001 271.492 60.7001 271.825 60.7001C272.158 60.7001 272.325 60.5668 272.325 60.3001C272.325 60.1001 272.058 59.9668 271.525 59.9001C271.058 59.8334 270.758 59.7668 270.625 59.7001C270.025 59.3668 269.625 58.8001 269.425 58.0001C269.292 57.2001 269.225 56.5334 269.225 56.0001C269.225 54.0668 269.525 52.2001 270.125 50.4001C270.258 50.0668 270.425 49.6668 270.625 49.2001C270.825 48.7334 270.925 48.3001 270.925 47.9001V47.8001L271.025 47.7001C271.158 47.3668 271.325 46.9334 271.525 46.4001C271.725 45.8668 271.825 45.4334 271.825 45.1001C271.892 45.0334 272.158 44.5334 272.625 43.6001C273.158 42.6001 273.725 41.6001 274.325 40.6001C274.925 39.5334 275.325 38.8668 275.525 38.6001C275.525 38.5334 275.725 38.2334 276.125 37.7001C276.592 37.1001 277.025 36.5001 277.425 35.9001L278.025 35.0001C279.158 34.6001 280.392 34.4001 281.725 34.4001C282.458 34.4001 283.125 34.5001 283.725 34.7001C284.392 34.8334 285.092 35.0001 285.825 35.2001C284.958 34.2668 283.892 33.7334 282.625 33.6001C281.358 33.4668 280.158 33.3668 279.025 33.3001C279.025 33.1668 279.158 32.9668 279.425 32.7001C279.758 32.3668 279.992 32.1668 280.125 32.1001V31.7001C280.525 31.3001 280.858 30.8334 281.125 30.3001C281.392 29.7668 281.725 29.3334 282.125 29.0001C282.858 28.2668 283.558 27.5334 284.225 26.8001C284.892 26.0668 285.625 25.3668 286.425 24.7001L287.125 24.5001C287.392 24.3001 287.858 24.0001 288.525 23.6001C289.192 23.1334 289.825 22.6668 290.425 22.2001C291.092 21.7334 291.425 21.4001 291.425 21.2001C291.425 20.6668 290.992 20.2001 290.125 19.8001C289.325 19.4001 288.692 19.1668 288.225 19.1001C287.558 19.4334 287.092 19.7668 286.825 20.1001C286.558 20.4334 286.158 20.8334 285.625 21.3001L283.425 23.4001C281.825 24.9334 280.392 26.6334 279.125 28.5001C277.925 30.3001 276.692 32.1334 275.425 34.0001C274.892 34.2668 274.392 34.4001 273.925 34.4001V34.5001H273.825C273.092 34.7668 272.292 35.0001 271.425 35.2001C271.158 35.2668 270.558 35.4334 269.625 35.7001C268.758 35.9668 267.792 36.2668 266.725 36.6001C265.725 36.9334 264.858 37.2668 264.125 37.6001L264.079 37.6169L264.023 37.6378C263.99 37.6502 263.958 37.6625 263.927 37.6747L263.343 37.7999C262.343 37.9999 261.01 38.5332 259.343 39.3999C257.676 40.1999 256.376 40.8666 255.443 41.3999C255.176 41.5332 254.876 41.7332 254.543 41.9999C254.21 42.2666 253.876 42.3999 253.543 42.3999C253.476 42.3999 253.043 42.1999 252.243 41.7999C251.51 41.3332 250.743 40.8666 249.943 40.3999C249.143 39.9332 248.643 39.6332 248.443 39.4999C247.91 39.2332 247.376 38.8999 246.843 38.4999C246.376 38.0332 246.143 37.4666 246.143 36.7999C246.143 36.2666 246.276 35.7666 246.543 35.2999C246.876 34.7666 247.176 34.2666 247.443 33.7999C248.976 31.5332 250.643 29.8332 252.443 28.6999C254.31 27.4999 256.476 26.4666 258.943 25.5999C259.676 25.2666 260.376 24.9999 261.043 24.7999C261.776 24.5332 262.543 24.3999 263.343 24.3999C264.41 24.3999 264.943 24.8999 264.943 25.8999C264.943 26.4332 264.776 27.1332 264.443 27.9999C264.176 28.7999 263.876 29.3999 263.543 29.7999V29.9999H263.643C263.71 29.9332 263.776 29.8999 263.843 29.8999C264.11 29.7666 264.443 29.3999 264.843 28.7999C265.31 28.1999 265.71 27.5666 266.043 26.8999C266.443 26.1666 266.643 25.6666 266.643 25.3999C266.643 24.7332 266.243 24.0666 265.443 23.3999C264.643 22.7332 263.943 22.3999 263.343 22.3999C262.81 22.3999 262.243 22.4999 261.643 22.6999C261.043 22.8332 260.476 22.9666 259.943 23.0999H259.743L258.543 23.5999C257.943 23.7332 257.41 23.9666 256.943 24.2999V24.1999C256.476 24.3999 255.71 24.7666 254.643 25.2999C253.643 25.7666 252.643 26.2666 251.643 26.7999C250.71 27.3332 250.076 27.7999 249.743 28.1999C248.61 28.8666 247.343 29.8332 245.943 31.0999C244.543 32.2999 243.843 33.6332 243.843 35.0999C243.843 36.0332 244.11 36.8999 244.643 37.6999C245.243 38.4999 245.876 39.1666 246.543 39.6999C247.276 40.4332 248.143 40.9999 249.143 41.3999C250.143 41.7999 251.076 42.2666 251.943 42.7999V42.8999C251.61 43.3666 251.11 43.7666 250.443 44.0999C249.843 44.4332 249.31 44.8332 248.843 45.2999H248.543C246.476 46.3666 244.41 47.6666 242.343 49.1999C240.343 50.7332 238.643 52.4666 237.243 54.3999C237.243 54.5999 237.31 54.7999 237.443 54.9999C237.51 55.1999 237.543 55.4332 237.543 55.6999C237.81 55.6332 238.076 55.8332 238.343 56.2999C238.61 56.8332 238.91 57.3332 239.243 57.7999C239.51 58.3332 239.776 58.6666 240.043 58.7999L240.143 58.5999C240.143 58.2666 240.076 57.9332 239.943 57.5999C239.81 57.3332 239.743 57.0666 239.743 56.7999C239.743 55.9999 240.01 55.3332 240.543 54.7999C241.276 53.9999 242.01 53.2666 242.743 52.5999C243.476 51.8666 244.276 51.1666 245.143 50.4999C245.81 49.9666 246.41 49.4332 246.943 48.8999C247.476 48.2999 248.076 47.7666 248.743 47.2999C249.276 46.8999 249.81 46.5332 250.343 46.1999C250.876 45.8666 251.376 45.5332 251.843 45.1999C251.976 45.0666 252.143 44.8666 252.343 44.5999C252.61 44.3332 252.876 44.1999 253.143 44.1999C253.41 44.1999 253.576 44.3999 253.643 44.7999C253.71 45.1332 253.743 45.3999 253.743 45.5999C253.743 46.6666 253.343 47.7999 252.543 48.9999C251.743 50.1332 250.81 51.1999 249.743 52.1999C248.676 53.1332 247.71 53.8999 246.843 54.4999C246.776 54.5666 246.576 54.6999 246.243 54.8999C245.976 55.0999 245.843 55.2332 245.843 55.2999C245.376 55.5666 244.576 55.9666 243.443 56.4999C242.31 57.0332 241.61 57.3666 241.343 57.4999C241.143 57.6999 241.043 57.8332 241.043 57.8999C241.043 58.0332 241.143 58.0999 241.343 58.0999C241.61 58.0999 241.843 58.0332 242.043 57.8999C242.243 57.7666 242.476 57.6666 242.743 57.5999C243.81 57.7999 244.676 57.6999 245.343 57.2999C246.076 56.9666 246.676 56.5666 247.143 56.0999C247.676 55.6999 248.176 55.4999 248.643 55.4999H248.743C249.076 55.1666 249.41 54.7999 249.743 54.3999C250.076 54.0666 250.476 53.8999 250.943 53.8999L251.443 53.2999C252.243 53.3666 252.776 53.0999 253.043 52.4999C253.376 51.8332 253.843 51.3999 254.443 51.1999V50.7999C254.91 50.4666 255.31 49.8332 255.643 48.8999C255.976 47.8999 256.143 47.1332 256.143 46.5999C256.143 46.2666 256.076 45.9666 255.943 45.6999C255.876 45.4332 255.843 45.1666 255.843 44.8999C255.843 44.0999 256.31 43.3999 257.243 42.7999C258.176 42.1332 258.943 41.5999 259.543 41.1999C259.743 41.0666 259.91 40.8999 260.043 40.6999C260.176 40.4332 260.343 40.2332 260.543 40.0999C260.876 39.8332 261.476 39.5666 262.343 39.2999C262.648 39.191 262.924 39.0785 263.172 38.9625C263.189 39.007 263.206 39.0529 263.225 39.1001C263.425 39.3668 263.658 39.5001 263.925 39.5001H264.125L267.125 38.0001C267.858 37.6668 268.758 37.4001 269.825 37.2001C270.892 37.0001 271.758 36.6668 272.425 36.2001V36.1001L273.025 36.2001L274.825 35.6001C274.825 35.6668 274.625 36.0668 274.225 36.8001C273.825 37.5334 273.392 38.2668 272.925 39.0001C272.525 39.7334 272.258 40.2334 272.125 40.5001C271.058 42.4334 270.025 44.8001 269.025 47.6001C268.025 50.4001 267.525 52.9001 267.525 55.1001C267.525 55.7668 267.592 56.4668 267.725 57.2001C267.925 57.9334 268.258 58.5668 268.725 59.1001C268.992 59.3668 269.492 59.7001 270.225 60.1001ZM217.385 54.8C217.918 55.3333 218.718 55.6 219.785 55.6C221.318 55.6 222.818 55.3 224.285 54.7C225.752 54.1 227.085 53.3667 228.285 52.5C228.752 52.1667 229.185 51.8 229.585 51.4C229.985 51 230.418 50.7 230.885 50.5C230.952 50.3667 231.218 50.0667 231.685 49.6L233.285 48C233.885 47.4667 234.252 47.1333 234.385 47C234.985 46.4 235.485 45.7667 235.885 45.1L237.285 43.1C238.352 41.7667 239.318 40.4 240.185 39C241.052 37.6 241.485 36.0333 241.485 34.3C241.485 33.9667 241.452 33.6 241.385 33.2C241.318 32.8 241.185 32.5 240.985 32.3C240.918 32.1667 240.818 32.0333 240.685 31.9L240.285 31.5C239.885 31.1 239.518 30.6667 239.185 30.2C238.852 29.6667 238.385 29.2667 237.785 29L237.985 28.8C237.585 28.8 237.118 28.6667 236.585 28.4C236.052 28.1333 235.452 28 234.785 28C234.452 28 233.918 28.0667 233.185 28.2C232.452 28.2667 231.918 28.3667 231.585 28.5H231.485C228.685 29.6333 226.252 31.0333 224.185 32.7C222.118 34.3 220.318 36.4 218.785 39L217.985 40.2C217.718 40.6 217.518 41.0333 217.385 41.5C217.252 41.7667 217.185 42.1 217.185 42.5C217.185 42.8333 217.118 43.1667 216.985 43.5C216.518 44.6333 215.985 45.7 215.385 46.7C214.785 47.7 214.485 48.8667 214.485 50.2C214.485 51.6667 214.752 52.6 215.285 53C215.818 53.4 216.118 53.7667 216.185 54.1C216.518 54.1 216.918 54.3333 217.385 54.8ZM220.685 54L219.285 54.4C218.085 54.4 217.285 54.0333 216.885 53.3C216.485 52.6333 216.285 51.7667 216.285 50.7V49.9C216.352 49.5667 216.418 49.2667 216.485 49C216.618 49 216.852 48.5667 217.185 47.7C217.518 46.8333 217.818 46.3 218.085 46.1C218.218 46.1 218.352 46.2 218.485 46.4C218.685 46.5333 218.952 46.6 219.285 46.6H219.585C219.585 46.4667 219.518 46.3 219.385 46.1C219.252 45.8333 219.118 45.7333 218.985 45.8C218.985 45.2 219.085 44.6667 219.285 44.2C219.552 43.7333 219.852 43.3 220.185 42.9C220.585 42.5 220.985 42.1333 221.385 41.8C222.252 40.8667 223.352 39.9 224.685 38.9C226.085 37.8333 227.452 37.3 228.785 37.3C229.318 37.3 229.652 37.3667 229.785 37.5C229.985 37.6333 230.285 37.7667 230.685 37.9V37.7C230.685 37.3667 230.185 36.9 229.185 36.3C228.252 35.7 227.618 35.4 227.285 35.4C226.218 35.4 225.385 35.6333 224.785 36.1C224.252 36.5 223.685 36.7333 223.085 36.8C223.085 36.6 223.218 36.4 223.485 36.2C223.752 36 223.952 35.8667 224.085 35.8C224.485 35.3333 224.918 34.9333 225.385 34.6C225.852 34.2 226.318 33.8333 226.785 33.5C228.185 32.4333 229.618 31.4667 231.085 30.6C232.618 29.6667 234.318 29.2 236.185 29.2C236.918 29.2 237.452 29.4333 237.785 29.9C238.185 30.3667 238.385 30.9 238.385 31.5V31.6L238.285 31.7V32.7C238.285 33.1 238.218 33.4333 238.085 33.7C238.085 34.1 238.018 34.5 237.885 34.9C237.752 35.2333 237.685 35.6 237.685 36C237.618 36.0667 237.552 36.1667 237.485 36.3C237.485 36.3667 237.452 36.4667 237.385 36.6L237.485 36.7C237.352 36.7 237.185 37.1 236.985 37.9C236.785 38.6333 236.585 39.0667 236.385 39.2C236.385 39.4 236.285 39.6667 236.085 40C235.952 40.2667 235.852 40.5333 235.785 40.8C235.718 40.8 235.518 41.1 235.185 41.7C234.852 42.2333 234.618 42.5667 234.485 42.7C234.218 43.1 233.685 43.8333 232.885 44.9C232.085 45.9 231.252 46.8667 230.385 47.8C229.585 48.6667 228.952 49.1667 228.485 49.3C228.485 49.5667 228.052 50.0333 227.185 50.7C226.318 51.3 225.385 51.9 224.385 52.5C223.452 53.0333 222.818 53.3667 222.485 53.5C222.218 53.5667 221.618 53.7333 220.685 54ZM209.109 59.4002C207.976 59.4002 207.109 59.0335 206.509 58.3002C205.909 57.5669 205.509 56.6669 205.309 55.6002C205.176 54.6002 205.109 53.6669 205.109 52.8002C205.109 50.5335 205.376 48.0669 205.909 45.4002C206.443 42.6669 207.109 39.9669 207.909 37.3002C208.776 34.5669 209.643 32.1335 210.509 30.0002V29.6002C210.509 28.7335 210.709 27.8669 211.109 27.0002C211.576 26.1335 211.943 25.3335 212.209 24.6002C213.409 21.6002 214.643 18.6335 215.909 15.7002C217.243 12.7669 218.743 9.9002 220.409 7.1002C220.943 6.3002 221.409 5.46686 221.809 4.6002C222.209 3.66686 222.743 2.86686 223.409 2.2002C224.143 2.2002 224.943 2.33353 225.809 2.60019C226.676 2.80019 227.109 3.36686 227.109 4.3002C227.109 4.96686 226.843 5.80019 226.309 6.80019C225.776 7.73353 225.176 8.63353 224.509 9.50019C223.843 10.3669 223.309 11.1002 222.909 11.7002C222.843 11.6335 222.743 11.5669 222.609 11.5002C222.543 11.3669 222.476 11.3002 222.409 11.3002C222.343 11.3002 222.309 11.3335 222.309 11.4002C221.443 12.4002 220.676 13.5002 220.009 14.7002C219.409 15.9002 218.843 17.1002 218.309 18.3002C217.776 19.5669 217.143 20.7669 216.409 21.9002C215.676 23.0335 215.043 24.2335 214.509 25.5002C214.376 25.7669 214.176 26.3669 213.909 27.3002C213.643 28.2335 213.376 29.1335 213.109 30.0002C212.843 30.8002 212.676 31.2335 212.609 31.3002C212.476 32.7669 211.976 34.1335 211.109 35.4002C210.309 36.6669 209.909 38.0669 209.909 39.6002C209.643 39.8669 209.476 40.2669 209.409 40.8002C209.409 41.2669 209.343 41.7002 209.209 42.1002C208.743 44.0335 208.243 45.9669 207.709 47.9002C207.176 49.7669 206.909 51.7335 206.909 53.8002C206.909 54.5335 206.976 55.2002 207.109 55.8002C207.243 56.4669 207.476 57.1669 207.809 57.9002C207.943 58.1669 208.209 58.4002 208.609 58.6002C209.076 58.8002 209.343 59.0669 209.409 59.4002H209.109ZM142.609 59.2002C140.076 59.2002 137.943 58.3002 136.209 56.5002C134.476 54.7002 133.609 52.5669 133.609 50.1002C133.609 47.3669 134.109 44.5335 135.109 41.6002C136.176 38.6002 137.576 35.7669 139.309 33.1002C141.043 30.3669 142.876 28.1002 144.809 26.3002L147.309 24.2002C148.309 23.3335 149.409 22.4002 150.609 21.4002C151.876 20.4002 153.176 19.5335 154.509 18.8002C155.909 18.0002 157.276 17.6002 158.609 17.6002C159.543 17.6002 160.409 17.8002 161.209 18.2002C162.076 18.6002 162.876 19.1002 163.609 19.7002V19.9002H163.509V20.1002C162.843 19.9669 162.209 19.8002 161.609 19.6002C161.009 19.4002 160.376 19.3002 159.709 19.3002C157.976 19.3002 156.043 20.1002 153.909 21.7002C151.776 23.2335 149.643 25.2669 147.509 27.8002C145.376 30.2669 143.409 32.9335 141.609 35.8002C139.809 38.6002 138.343 41.2669 137.209 43.8002C136.143 46.3335 135.609 48.4335 135.609 50.1002C135.609 52.3669 136.143 54.2335 137.209 55.7002C138.276 57.2335 140.009 58.0002 142.409 58.0002C142.543 58.0002 142.776 57.9669 143.109 57.9002C143.509 57.8335 143.709 57.7335 143.709 57.6002H143.909L144.009 57.7002V57.6002C147.009 56.8669 149.743 55.4669 152.209 53.4002C154.743 51.4002 157.043 49.3669 159.109 47.3002C162.309 44.1002 165.343 40.7669 168.209 37.3002C171.076 33.7669 173.909 30.2335 176.709 26.7002C178.043 24.9669 179.409 23.2335 180.809 21.5002C182.209 19.7669 183.543 17.9669 184.809 16.1002C185.343 15.2335 185.843 14.3669 186.309 13.5002C186.843 12.5669 187.309 11.6335 187.709 10.7002C187.909 10.1669 188.076 9.60019 188.209 9.00019C188.343 8.40019 188.576 7.86686 188.909 7.4002C189.509 7.4002 190.309 7.5002 191.309 7.7002C192.309 7.83353 192.809 8.36686 192.809 9.30019L192.509 10.2002C192.309 10.6669 192.043 11.1335 191.709 11.6002C191.443 12.0002 191.209 12.4335 191.009 12.9002C190.609 13.5669 190.209 14.3002 189.809 15.1002L188.609 17.3002C185.009 24.5002 183.209 32.2002 183.209 40.4002C183.209 41.4002 183.276 42.4669 183.409 43.6002C183.543 44.6669 183.909 45.6002 184.509 46.4002C185.109 47.1335 186.043 47.5002 187.309 47.5002C187.909 47.1669 188.509 46.9002 189.109 46.7002C189.776 46.4335 190.409 46.1002 191.009 45.7002C193.409 44.1002 195.543 42.1669 197.409 39.9002C199.276 37.6335 201.043 35.2335 202.709 32.7002C204.376 30.1669 206.043 27.7669 207.709 25.5002C207.976 25.1669 208.443 24.6002 209.109 23.8002C209.776 22.9335 210.409 22.1002 211.009 21.3002C211.609 20.4335 211.909 19.8335 211.909 19.5002H212.109L212.209 19.7002C212.209 19.9669 211.776 20.8335 210.909 22.3002C210.109 23.7669 209.076 25.5335 207.809 27.6002C206.543 29.6669 205.243 31.7669 203.909 33.9002C202.576 35.9669 201.376 37.8002 200.309 39.4002C199.309 41.0002 198.609 42.0669 198.209 42.6002C197.609 43.4002 196.909 44.2335 196.109 45.1002C195.376 45.9669 194.609 46.6669 193.809 47.2002C192.943 47.7335 191.976 48.1335 190.909 48.4002C189.909 48.6002 188.943 48.7002 188.009 48.7002C185.143 48.7002 183.043 47.8335 181.709 46.1002C180.443 44.3669 179.809 42.1669 179.809 39.5002C179.809 36.9669 180.143 34.4669 180.809 32.0002L182.809 24.6002C182.876 24.4002 183.009 23.9335 183.209 23.2002C183.476 22.4669 183.709 21.7335 183.909 21.0002C184.176 20.2669 184.276 19.8669 184.209 19.8002H184.109V19.7002C183.976 19.7669 183.609 20.2335 183.009 21.1002C182.409 21.9669 181.709 22.9669 180.909 24.1002C180.176 25.1669 179.476 26.1669 178.809 27.1002C178.143 28.0335 177.709 28.6669 177.509 29.0002C176.509 30.2669 175.476 31.5669 174.409 32.9002C173.343 34.1669 172.276 35.4669 171.209 36.8002C169.543 38.9335 167.676 41.3002 165.609 43.9002C163.609 46.4335 161.409 48.8669 159.009 51.2002C156.609 53.5335 154.043 55.4335 151.309 56.9002C148.576 58.4335 145.676 59.2002 142.609 59.2002ZM195.359 127.78L190.799 132.26V74.0198L184.639 72.4198L197.119 66.3398V96.6598C201.439 93.7798 207.359 90.0198 211.839 90.0198C222.159 90.0198 229.039 98.3398 229.039 110.34C229.039 122.98 221.279 132.26 209.199 132.26C204.479 132.26 199.199 130.58 195.359 127.78ZM209.359 131.06C216.879 131.06 222.239 123.22 222.239 112.02C222.239 100.9 216.399 93.2999 208.159 93.2999C205.119 93.2999 201.279 95.2998 197.119 97.8598V121.06C198.399 127.14 203.679 131.06 209.359 131.06ZM237.439 132.26L241.999 127.78C245.839 130.58 251.119 132.26 255.839 132.26C267.919 132.26 275.679 122.98 275.679 110.34C275.679 98.3398 268.799 90.0198 258.479 90.0198C253.999 90.0198 248.079 93.7798 243.759 96.6598V66.3398L231.279 72.4198L237.439 74.0198V132.26ZM268.879 112.02C268.879 123.22 263.519 131.06 255.999 131.06C250.319 131.06 245.039 127.14 243.759 121.06V97.8598C247.919 95.2998 251.759 93.2999 254.799 93.2999C263.039 93.2999 268.879 100.9 268.879 112.02ZM279.844 131.3L285.604 128.1V73.9398L279.444 72.4198L291.924 66.3398V128.1L297.764 131.3H279.844ZM452.607 80.42H460.927V71.46H452.607V80.42ZM454.287 128.1L448.527 131.3H466.607L460.527 128.1V90.02L448.047 96.02L454.287 97.62V128.1ZM470.322 131.3L476.162 128.1V97.62L469.922 96.02L482.402 90.02V96.82L482.519 96.7472C486.763 94.1043 493.322 90.02 497.682 90.02C504.082 90.02 508.882 94.66 508.882 101.94V128.1L514.722 131.3H496.402L502.642 128.1V102.26C502.642 97.3 498.962 93.22 494.402 93.22C490.802 93.22 486.402 95.54 482.402 97.94V128.1L488.642 131.3H470.322ZM518.691 111.78C518.691 124.18 526.451 132.26 537.491 132.26C545.651 132.26 551.571 126.42 553.571 116.26C551.251 123.78 546.451 127.7 539.811 127.7C530.851 127.7 525.171 120.18 525.171 109.54C525.171 108.26 525.251 107.06 525.331 105.86H552.611V105.3C552.611 96.18 546.451 90.02 537.411 90.02C526.691 90.02 518.691 98.98 518.691 111.78ZM543.411 104.58H525.491C526.931 96.58 531.491 91.22 537.411 91.22C542.211 91.22 545.971 96.58 545.971 101.78C545.971 103.62 545.171 104.58 543.411 104.58ZM557.744 131.3L563.584 128.1V97.62L557.344 96.02L569.824 90.02V97.54C572.704 94.1 577.104 90.02 581.984 90.02C585.504 90.02 587.984 91.86 587.984 94.58C587.984 96.74 586.544 98.26 584.544 98.26C582.64 98.26 581.592 97.1247 580.581 96.029C579.639 95.0073 578.728 94.02 577.184 94.02C574.304 94.02 571.744 97.06 569.824 99.38V128.1L576.704 131.3H557.744ZM608.037 150.82H599.717L613.717 131.78L596.597 94.4199L590.357 90.8999H611.077L603.557 94.3399L616.197 122.74H617.237L628.037 94.4199L620.357 90.8999H636.437L629.717 94.4999L614.597 132.98L608.037 150.82ZM301.737 111.78C301.737 124.18 309.497 132.26 320.537 132.26C328.697 132.26 334.617 126.42 336.617 116.26C334.297 123.78 329.497 127.7 322.857 127.7C313.897 127.7 308.217 120.18 308.217 109.54C308.217 108.26 308.297 107.06 308.377 105.86H335.657V105.3C335.657 96.18 329.497 90.02 320.457 90.02C309.737 90.02 301.737 98.98 301.737 111.78ZM326.457 104.58H308.537C309.977 96.58 314.537 91.22 320.457 91.22C325.257 91.22 329.017 96.58 329.017 101.78C329.017 103.62 328.217 104.58 326.457 104.58ZM144.904 120.34C144.904 127.62 149.864 132.26 156.184 132.26C160.744 132.26 166.984 128.34 171.304 125.46V132.5L183.464 127.46L177.624 126.66V90.02L165.224 96.02L171.304 97.62V124.34C167.304 126.82 162.984 128.66 159.784 128.66C154.824 128.66 151.224 124.58 151.224 120.02V90.02L138.824 96.02L144.904 97.62V120.34ZM108.14 132.26C102.7 132.26 98.78 128.98 98.78 123.86C98.78 116.449 111.459 111.419 122.265 107.133C123.007 106.839 123.74 106.548 124.46 106.26V102.42C124.46 96.82 120.54 92.5 114.94 92.5C112.94 92.5 111.18 92.98 109.26 94.1C107.083 95.4136 106.403 98.118 105.774 100.619C105.062 103.45 104.416 106.02 101.74 106.02C99.82 106.02 98.62 104.58 98.62 102.58C98.62 96.74 112.94 90.02 118.7 90.02C125.74 90.02 130.62 94.9 130.62 102.1V126.42L136.54 127.22L124.46 132.26V122.26C119.66 127.54 114.22 132.26 108.14 132.26ZM111.98 128.5C116.46 128.5 120.54 124.82 124.46 120.58V107.46C114.22 111.62 105.1 115.78 105.1 122.18C105.1 126.02 108.06 128.5 111.98 128.5ZM57.5969 111.78C57.5969 124.18 65.3569 132.26 76.3969 132.26C84.5569 132.26 90.4769 126.42 92.4769 116.26C90.1569 123.78 85.3569 127.7 78.7169 127.7C69.7569 127.7 64.0769 120.18 64.0769 109.54C64.0769 108.26 64.1569 107.06 64.2369 105.86H91.5169V105.3C91.5169 96.18 85.3569 90.02 76.3169 90.02C65.5969 90.02 57.5969 98.98 57.5969 111.78ZM82.3169 104.58H64.3969C65.8369 96.58 70.3969 91.22 76.3169 91.22C81.1169 91.22 84.8769 96.58 84.8769 101.78C84.8769 103.62 84.0769 104.58 82.3169 104.58ZM27.52 131.3H0L6.96 127.06V76.74L0 72.5H28.48C39.68 72.5 48.48 78.58 48.48 86.34C48.48 93.06 42.56 98.26 33.68 99.78V100.66C43.6 102.5 50.4 108.18 50.48 115.54C50.56 124.98 40.64 131.3 27.52 131.3ZM13.68 74.1V99.62H27.92C35.92 99.62 41.44 94.18 41.44 86.34C41.44 79.14 36.16 74.1 28 74.1H13.68ZM13.68 101.14V129.7H27.12C37.76 129.7 43.36 122.98 43.36 115.46C43.36 107.94 37.76 101.14 27.2 101.14H13.68Z" fill="white"/>
</svg>
